<mxfile host="app.diagrams.net" modified="2023-12-15T07:53:14.870Z" agent="Mozilla/5.0 (Windows NT 10.0; Win64; x64) AppleWebKit/537.36 (KHTML, like Gecko) Chrome/119.0.0.0 Safari/537.36 OPR/105.0.0.0" version="22.1.9" etag="vp_najv11_zdajfmVui-" type="github">
  <diagram name="Page-1" id="P85KGqV9WXoxuvEHtOWm">
    <mxGraphModel>
      <root>
        <mxCell id="0" />
        <mxCell id="1" parent="0" />
      </root>
    </mxGraphModel>
  </diagram>
</mxfile>
